<?plantuml 1.2026.2?><svg xmlns="http://www.w3.org/2000/svg" xmlns:xlink="http://www.w3.org/1999/xlink" contentStyleType="text/css" data-diagram-type="STATE" height="362px" preserveAspectRatio="none" style="width:123px;height:362px;background:#FFFFFF;" version="1.1" viewBox="0 0 123 362" width="123px" zoomAndPan="magnify"><defs/><g><g class="start_entity" data-qualified-name=".start." data-source-line="2" id="ent0002"><ellipse cx="83.5" cy="16" fill="#222222" rx="10" ry="10" style="stroke:#222222;stroke-width:1;"/></g><g class="entity" data-qualified-name="StateA" id="ent0003"><rect fill="#F1F1F1" height="50" rx="12.5" ry="12.5" style="stroke:#181818;stroke-width:0.5;" width="66.6348" x="50" y="86"/><line style="stroke:#181818;stroke-width:0.5;" x1="50" x2="116.6348" y1="112.2969" y2="112.2969"/><text fill="#000000" font-family="sans-serif" font-size="14" lengthAdjust="spacing" textLength="46.6348" x="60" y="103.9951">StateA</text></g><g class="entity" data-qualified-name="StateB" id="ent0005"><rect fill="#F1F1F1" height="50" rx="12.5" ry="12.5" style="stroke:#181818;stroke-width:0.5;" width="66.6621" x="7" y="196"/><line style="stroke:#181818;stroke-width:0.5;" x1="7" x2="73.6621" y1="222.2969" y2="222.2969"/><text fill="#000000" font-family="sans-serif" font-size="14" lengthAdjust="spacing" textLength="46.6621" x="17" y="213.9951">StateB</text></g><g class="entity" data-qualified-name="StateC" id="ent0007"><rect fill="#F1F1F1" height="50" rx="12.5" ry="12.5" style="stroke:#181818;stroke-width:0.5;" width="66.833" x="50" y="306"/><line style="stroke:#181818;stroke-width:0.5;" x1="50" x2="116.833" y1="332.2969" y2="332.2969"/><text fill="#000000" font-family="sans-serif" font-size="14" lengthAdjust="spacing" textLength="46.833" x="60" y="323.9951">StateC</text></g><!--link *start* to StateA--><g class="link" data-entity-1="ent0002" data-entity-2="ent0003" data-link-type="dependency" data-source-line="2" id="lnk4"><path d="M83.5,26.26 C83.5,40.04 83.5,60.42 83.5,79.91" fill="none" id="*start*-to-StateA" style="stroke:#181818;stroke-width:1;"/><polygon fill="#181818" points="83.5,85.91,87.5,76.91,83.5,80.91,79.5,76.91,83.5,85.91" style="stroke:#181818;stroke-width:1;"/></g><!--link StateA to StateB--><g class="link" data-entity-1="ent0003" data-entity-2="ent0005" data-link-type="dependency" data-source-line="3" id="lnk6"><path d="M73.85,136.24 C66.77,154.02 59.4091,172.5055 52.3391,190.2655" fill="none" id="StateA-to-StateB" style="stroke:#181818;stroke-width:1;"/><polygon fill="#181818" points="50.12,195.84,57.1651,188.9576,51.9693,191.1946,49.7324,185.9988,50.12,195.84" style="stroke:#181818;stroke-width:1;"/></g><!--link StateB to StateC--><g class="link" data-entity-1="ent0005" data-entity-2="ent0007" data-link-type="dependency" data-source-line="4" id="lnk8"><path d="M50.15,246.24 C57.23,264.02 64.5909,282.5055 71.6609,300.2655" fill="none" id="StateB-to-StateC" style="stroke:#181818;stroke-width:1;"/><polygon fill="#181818" points="73.88,305.84,74.2676,295.9988,72.0307,301.1946,66.8349,298.9576,73.88,305.84" style="stroke:#181818;stroke-width:1;"/></g><!--link StateC to StateA--><g class="link" data-entity-1="ent0007" data-entity-2="ent0003" data-link-type="dependency" data-source-line="5" id="lnk9"><path d="M86.42,305.78 C88.29,289.03 90.54,266.19 91.5,246 C92.55,223.8 92.55,218.2 91.5,196 C90.54,175.81 88.9557,158.933 87.0857,142.183" fill="none" id="StateC-to-StateA" style="stroke:#181818;stroke-width:1;"/><polygon fill="#181818" points="86.42,136.22,83.4433,145.6082,86.9748,141.1891,91.3939,144.7206,86.42,136.22" style="stroke:#181818;stroke-width:1;"/></g><?plantuml-src YzQALT3LjLC8BaaiINNaWb084IU8Y1D2n1aYueoi2m00?></g></svg>