<?plantuml 1.2026.2?><svg xmlns="http://www.w3.org/2000/svg" xmlns:xlink="http://www.w3.org/1999/xlink" contentStyleType="text/css" data-diagram-type="ACTIVITY" height="442px" preserveAspectRatio="none" style="width:512px;height:442px;background:#FFFFFF;" version="1.1" viewBox="0 0 512 442" width="512px" zoomAndPan="magnify"><defs/><g><rect fill="none" height="202.3047" style="stroke:#000000;stroke-width:1.5;" width="490.126" x="11" y="11"/><path d="M62.9531,11 L62.9531,21.4609 L52.9531,31.4609 L11,31.4609" fill="none" style="stroke:#000000;stroke-width:1.5;"/><text fill="#000000" font-family="sans-serif" font-size="15" lengthAdjust="spacing" textLength="41.9531" x="14" y="25.9233">setup</text><path d="M221,46.4609 L221,56.1914 L201,60.1914 L221,64.1914 L221,73.9219 A0,0 0 0 0 221,73.9219 L406.9707,73.9219 A0,0 0 0 0 406.9707,73.9219 L406.9707,56.4609 L396.9707,46.4609 L221,46.4609 A0,0 0 0 0 221,46.4609" fill="#FEFFDD" style="stroke:#181818;stroke-width:0.5;"/><path d="M396.9707,46.4609 L396.9707,56.4609 L406.9707,56.4609 L396.9707,46.4609" fill="#FEFFDD" style="stroke:#181818;stroke-width:0.5;"/><text fill="#000000" font-family="sans-serif" font-size="15" lengthAdjust="spacing" textLength="164.9707" x="227" y="65.3843">if doc/index.md exists</text><rect fill="#F1F1F1" height="37.4609" rx="12.5" ry="12.5" style="stroke:#181818;stroke-width:0.5;" width="180" x="21" y="41.4609"/><text fill="#000000" font-family="sans-serif" font-size="15" lengthAdjust="spacing" textLength="110.9912" x="31" y="65.3843">&#128214;.&#128221;      doc.config</text><path d="M221,95.1914 L221,113.6523 L201,117.6523 L221,121.6523 L221,140.1133 A0,0 0 0 0 221,140.1133 L491.126,140.1133 A0,0 0 0 0 491.126,140.1133 L491.126,105.1914 L481.126,95.1914 L221,95.1914 A0,0 0 0 0 221,95.1914" fill="#FEFFDD" style="stroke:#181818;stroke-width:0.5;"/><path d="M481.126,95.1914 L481.126,105.1914 L491.126,105.1914 L481.126,95.1914" fill="#FEFFDD" style="stroke:#181818;stroke-width:0.5;"/><text fill="#000000" font-family="sans-serif" font-size="15" lengthAdjust="spacing" textLength="164.9707" x="227" y="114.1147">if doc/index.md exists</text><text fill="#000000" font-family="sans-serif" font-size="15" lengthAdjust="spacing" textLength="249.126" x="227" y="131.5757">unless ${docRTDDisabled} is set</text><rect fill="#F1F1F1" height="37.4609" rx="12.5" ry="12.5" style="stroke:#181818;stroke-width:0.5;" width="180" x="21" y="98.9219"/><text fill="#000000" font-family="sans-serif" font-size="15" lengthAdjust="spacing" textLength="86.6602" x="31" y="122.8452">&#128214;.&#128221;      doc.rtd</text><path d="M221,156.3828 L221,174.8438 L201,178.8438 L221,182.8438 L221,201.3047 A0,0 0 0 0 221,201.3047 L422.271,201.3047 A0,0 0 0 0 422.271,201.3047 L422.271,166.3828 L412.271,156.3828 L221,156.3828 A0,0 0 0 0 221,156.3828" fill="#FEFFDD" style="stroke:#181818;stroke-width:0.5;"/><path d="M412.271,156.3828 L412.271,166.3828 L422.271,166.3828 L412.271,156.3828" fill="#FEFFDD" style="stroke:#181818;stroke-width:0.5;"/><text fill="#000000" font-family="sans-serif" font-size="15" lengthAdjust="spacing" textLength="180.271" x="227" y="175.3062">if diagrams/*.puml exist</text><text fill="#000000" font-family="sans-serif" font-size="15" lengthAdjust="spacing" textLength="158.2471" x="227" y="192.7671">and java config is OK</text><rect fill="#F1F1F1" height="37.4609" rx="12.5" ry="12.5" style="stroke:#181818;stroke-width:0.5;" width="180" x="21" y="160.1133"/><text fill="#000000" font-family="sans-serif" font-size="15" lengthAdjust="spacing" textLength="148.4839" x="31" y="184.0366">&#127981;.&#128229;      puml.download</text><rect fill="none" height="208.5742" style="stroke:#000000;stroke-width:1.5;" width="466.5347" x="11" y="223.3047"/><path d="M142.9556,223.3047 L142.9556,233.7656 L132.9556,243.7656 L11,243.7656" fill="none" style="stroke:#000000;stroke-width:1.5;"/><text fill="#000000" font-family="sans-serif" font-size="15" lengthAdjust="spacing" textLength="121.9556" x="14" y="238.228">build (build.doc)</text><path d="M221,260.0352 L221,278.4961 L201,282.4961 L221,286.4961 L221,304.957 A0,0 0 0 0 221,304.957 L422.271,304.957 A0,0 0 0 0 422.271,304.957 L422.271,270.0352 L412.271,260.0352 L221,260.0352 A0,0 0 0 0 221,260.0352" fill="#FEFFDD" style="stroke:#181818;stroke-width:0.5;"/><path d="M412.271,260.0352 L412.271,270.0352 L422.271,270.0352 L412.271,260.0352" fill="#FEFFDD" style="stroke:#181818;stroke-width:0.5;"/><text fill="#000000" font-family="sans-serif" font-size="15" lengthAdjust="spacing" textLength="180.271" x="227" y="278.9585">if diagrams/*.puml exist</text><text fill="#000000" font-family="sans-serif" font-size="15" lengthAdjust="spacing" textLength="158.2471" x="227" y="296.4194">and java config is OK</text><rect fill="#F1F1F1" height="37.4609" rx="12.5" ry="12.5" style="stroke:#181818;stroke-width:0.5;" width="180" x="21" y="263.7656"/><text fill="#000000" font-family="sans-serif" font-size="15" lengthAdjust="spacing" textLength="143.9063" x="31" y="287.689">&#127981;.&#128296;      puml.generate</text><path d="M221,329.957 L221,339.6875 L201,343.6875 L221,347.6875 L221,357.418 A0,0 0 0 0 221,357.418 L467.5347,357.418 A0,0 0 0 0 467.5347,357.418 L467.5347,339.957 L457.5347,329.957 L221,329.957 A0,0 0 0 0 221,329.957" fill="#FEFFDD" style="stroke:#181818;stroke-width:0.5;"/><path d="M457.5347,329.957 L457.5347,339.957 L467.5347,339.957 L457.5347,329.957" fill="#FEFFDD" style="stroke:#181818;stroke-width:0.5;"/><text fill="#000000" font-family="sans-serif" font-size="15" lengthAdjust="spacing" textLength="225.5347" x="227" y="348.8804">if ${docSnippets} are defined</text><rect fill="#F1F1F1" height="37.4609" rx="12.5" ry="12.5" style="stroke:#181818;stroke-width:0.5;" width="180" x="21" y="324.957"/><text fill="#000000" font-family="sans-serif" font-size="15" lengthAdjust="spacing" textLength="128.5474" x="31" y="348.8804">&#128214;.&#129513;      doc.snippets</text><path d="M221,387.418 L221,397.1484 L201,401.1484 L221,405.1484 L221,414.8789 A0,0 0 0 0 221,414.8789 L406.9707,414.8789 A0,0 0 0 0 406.9707,414.8789 L406.9707,397.418 L396.9707,387.418 L221,387.418 A0,0 0 0 0 221,387.418" fill="#FEFFDD" style="stroke:#181818;stroke-width:0.5;"/><path d="M396.9707,387.418 L396.9707,397.418 L406.9707,397.418 L396.9707,387.418" fill="#FEFFDD" style="stroke:#181818;stroke-width:0.5;"/><text fill="#000000" font-family="sans-serif" font-size="15" lengthAdjust="spacing" textLength="164.9707" x="227" y="406.3413">if doc/index.md exists</text><rect fill="#F1F1F1" height="37.4609" rx="12.5" ry="12.5" style="stroke:#181818;stroke-width:0.5;" width="180" x="21" y="382.418"/><text fill="#000000" font-family="sans-serif" font-size="15" lengthAdjust="spacing" textLength="101.9751" x="31" y="406.3413">&#128214;.&#128221;      doc.build</text><line style="stroke:#181818;stroke-width:1;" x1="111" x2="111" y1="78.9219" y2="98.9219"/><polygon fill="#181818" points="107,88.9219,111,98.9219,115,88.9219,111,92.9219" style="stroke:#181818;stroke-width:1;"/><line style="stroke:#181818;stroke-width:1;" x1="111" x2="111" y1="136.3828" y2="160.1133"/><polygon fill="#181818" points="107,150.1133,111,160.1133,115,150.1133,111,154.1133" style="stroke:#181818;stroke-width:1;"/><line style="stroke:#181818;stroke-width:1;" x1="111" x2="111" y1="301.2266" y2="324.957"/><polygon fill="#181818" points="107,314.957,111,324.957,115,314.957,111,318.957" style="stroke:#181818;stroke-width:1;"/><line style="stroke:#181818;stroke-width:1;" x1="111" x2="111" y1="362.418" y2="382.418"/><polygon fill="#181818" points="107,372.418,111,382.418,115,372.418,111,376.418" style="stroke:#181818;stroke-width:1;"/><line style="stroke:#181818;stroke-width:1;" x1="111" x2="111" y1="197.5742" y2="263.7656"/><polygon fill="#181818" points="107,253.7656,111,263.7656,115,253.7656,111,257.7656" style="stroke:#181818;stroke-width:1;"/><?plantuml-src fP6_IWD14CRxVOeXMAZ5nHI2n61rs8W8Hh19ixcTN4RsPe_RkPXut3DOA7PY9MhXk_a8tf-8LnW8ECLkyGtp--QRaPULnHE55XDaWUASc98ykIOZSnWS7PHAHq8BabL8Eivq0eM2gauTovZk40Q7gbIZ_dgEIdKc9EGOUXubJtlh_k7NoyDJK3tFq9HnKH0vdb5ytEZi126ZU2v3e5ajzuaDBeF402x9Yzyu9XEpxOm9vspHUzWfAlNoAWp9wwb5Km9vg0p_GEu_QyXh2qdpn0R6tR9rUWEgpSRtzuEwkQLDMBE16xtGq6vQCoxEghYwAKrpiWPscw-2H7kTn1eNZ-yT5p4oPbhm_owwQRvz_ARfcT8KnVz9Q68RhpjAq1c2mHancetNQHRR-iQb-WO0?></g></svg>